<svg width="35" height="35" viewBox="0 0 35 35" fill="none" xmlns="http://www.w3.org/2000/svg">
<g clip-path="url(#clip0_9_2)">
<path d="M29.1665 16.0424V18.9591H18.9585V29.1674H16.0419V18.9591H5.83388V16.0424H16.0419V5.83406H18.9585V16.0424H29.1665ZM29.8738 29.8747C23.0402 36.7084 11.9601 36.7084 5.12515 29.8747C-1.70838 23.0409 -1.70838 11.9605 5.12515 5.12531C11.9601 -1.70844 23.0388 -1.70844 29.8738 5.12531C36.7088 11.9605 36.7088 23.0409 29.8738 29.8747ZM27.8117 7.18885C22.209 1.58594 12.9853 1.39198 7.18863 7.18885C1.50277 12.8749 1.50277 22.1266 7.18863 27.8126C12.9853 33.6095 22.2105 33.4141 27.8117 27.8126C33.4976 22.1266 33.4976 12.8749 27.8117 7.18885Z" fill="black"/>
</g>
<defs>
<clipPath id="clip0_9_2">
<rect width="35" height="35" fill="white"/>
</clipPath>
</defs>
</svg>
