<svg width="35" height="35" viewBox="0 0 35 35" fill="none" xmlns="http://www.w3.org/2000/svg">
<g clip-path="url(#clip0_9_2)">
<path d="M26.6135 24.9281L24.5047 26.9431L17.4527 19.5626L10.0719 26.6149L8.05705 24.5062L15.4378 17.4539L8.38568 10.0734L10.4945 8.05847L17.5465 15.439L24.9273 8.38664L26.9421 10.4954L19.5614 17.5477L26.6135 24.9281ZM17.1013 34.9954C7.43952 34.7757 -0.215016 26.7647 0.00397008 17.1019C0.223963 7.4402 8.23521 -0.214576 17.898 0.00410692C27.5607 0.224852 35.2143 8.23479 34.9953 17.8976C34.7752 27.5614 26.764 35.2161 17.1013 34.9954ZM32.0788 17.8323C32.2592 9.91074 26.0273 3.10795 17.8316 2.92159C9.79249 2.7388 3.10345 9.13021 2.92041 17.1693C2.73379 25.365 9.24815 31.8999 17.1676 32.08C25.2067 32.2628 31.8958 25.8714 32.0788 17.8323Z" fill="black"/>
</g>
<defs>
<clipPath id="clip0_9_2">
<rect width="35" height="35" fill="white"/>
</clipPath>
</defs>
</svg>
