<svg width="38" height="36" viewBox="0 0 38 36" fill="none" xmlns="http://www.w3.org/2000/svg">
<path d="M18.9384 1.60615C15.5434 1.58504 12.2187 2.52549 9.38469 4.30856C6.55066 6.09162 4.33462 8.63723 3.0168 11.6235C1.69898 14.6097 1.33857 17.9025 1.98113 21.0853C2.6237 24.2682 4.2404 27.1982 6.62677 29.5049C9.01315 31.8116 12.062 33.3913 15.3879 34.0443C18.7137 34.6973 22.1671 34.3942 25.3114 33.1734C28.4556 31.9526 31.1496 29.869 33.0525 27.1859C34.9554 24.5028 35.9818 21.3408 36.002 18.0998C36.0257 15.9451 35.602 13.8071 34.7554 11.8091C33.9088 9.81119 32.6561 7.99293 31.0695 6.45937C29.483 4.92582 27.5941 3.70736 25.5119 2.87435C23.4298 2.04135 21.1956 1.61032 18.9384 1.60615ZM18.7532 31.4005C15.9755 31.3833 13.265 30.5801 10.9646 29.0925C8.66418 27.6049 6.87709 25.4997 5.82933 23.0432C4.78157 20.5867 4.5202 17.8892 5.07828 15.2918C5.63635 12.6943 6.9888 10.3137 8.96461 8.45081C10.9404 6.58795 13.4508 5.32657 16.1784 4.82617C18.9059 4.32578 21.7282 4.60885 24.2881 5.63958C26.8481 6.67031 29.0309 8.40242 30.5604 10.6169C32.0899 12.8313 32.8975 15.4286 32.881 18.0804C32.8384 21.6301 31.331 25.0197 28.686 27.5136C26.041 30.0074 22.4718 31.4041 18.7532 31.4005Z" fill="black"/>
<path d="M18.855 15.0136C18.4412 15.011 18.0433 15.1655 17.7489 15.4431C17.4545 15.7206 17.2877 16.0985 17.2853 16.4936L17.2297 25.4319C17.2272 25.827 17.3893 26.207 17.6802 26.4882C17.9711 26.7694 18.3671 26.9288 18.7809 26.9314C19.1948 26.9339 19.5927 26.7795 19.8871 26.5019C20.1815 26.2243 20.3482 25.8464 20.3507 25.4513L20.4062 16.513C20.4087 16.1179 20.2466 15.738 19.9557 15.4568C19.6648 15.1756 19.2689 15.0162 18.855 15.0136Z" fill="black"/>
<path d="M18.8736 12.0341C19.7354 12.0394 20.4382 11.3768 20.4434 10.554C20.4485 9.73129 19.754 9.05998 18.8921 9.05462C18.0303 9.04927 17.3275 9.71189 17.3224 10.5346C17.3173 11.3574 18.0118 12.0287 18.8736 12.0341Z" fill="black"/>
</svg>
