<svg width="30" height="33" viewBox="0 0 30 33" fill="none" xmlns="http://www.w3.org/2000/svg">
<path d="M21.9506 24.3158L25.2656 27.3865L23.94 28.6145L20.625 25.5437L17.31 28.6145L15.9844 27.3865L19.2994 24.3158L15.9844 21.2451L17.31 20.0171L20.625 23.0878L23.94 20.0171L25.2656 21.2451L21.9506 24.3158ZM22.5 14.0389C21.8906 13.9434 21.2634 13.8947 20.625 13.8947V2.60526C20.625 2.37494 20.5262 2.15406 20.3504 1.9912C20.1746 1.82834 19.9361 1.73684 19.6875 1.73684H2.8125C2.56386 1.73684 2.3254 1.82834 2.14959 1.9912C1.97377 2.15406 1.875 2.37494 1.875 2.60526V26.9211C1.875 27.1514 1.97377 27.3723 2.14959 27.5351C2.3254 27.698 2.56386 27.7895 2.8125 27.7895H10.0153C10.2469 28.3965 10.5375 28.9775 10.8797 29.5263H1.875C1.62877 29.5263 1.38495 29.4814 1.15747 29.3941C0.929982 29.3068 0.723285 29.1789 0.549175 29.0176C0.375065 28.8563 0.236954 28.6649 0.142726 28.4541C0.0484986 28.2434 0 28.0176 0 27.7895V1.73684C-7.21372e-09 1.50876 0.0484986 1.2829 0.142726 1.07218C0.236954 0.861458 0.375065 0.66999 0.549175 0.508709C0.723285 0.347429 0.929982 0.219493 1.15747 0.132209C1.38495 0.0449243 1.62877 -6.68219e-09 1.875 0H20.625C20.8712 0 21.115 0.0449243 21.3425 0.132209C21.57 0.219493 21.7767 0.347429 21.9508 0.508709C22.1249 0.66999 22.263 0.861458 22.3573 1.07218C22.4515 1.2829 22.5 1.50876 22.5 1.73684V14.0389ZM20.625 33C15.4472 33 11.25 29.1121 11.25 24.3158C11.25 19.5195 15.4472 15.6316 20.625 15.6316C25.8028 15.6316 30 19.5195 30 24.3158C30 29.1121 25.8028 33 20.625 33ZM20.625 31.2632C21.6099 31.2632 22.5852 31.0835 23.4951 30.7343C24.4051 30.3852 25.2319 29.8734 25.9283 29.2283C26.6247 28.5832 27.1772 27.8173 27.5541 26.9744C27.931 26.1315 28.125 25.2281 28.125 24.3158C28.125 23.4034 27.931 22.5 27.5541 21.6571C27.1772 20.8143 26.6247 20.0484 25.9283 19.4033C25.2319 18.7581 24.4051 18.2464 23.4951 17.8973C22.5852 17.5481 21.6099 17.3684 20.625 17.3684C18.6359 17.3684 16.7282 18.1004 15.3217 19.4033C13.9152 20.7061 13.125 22.4732 13.125 24.3158C13.125 26.1583 13.9152 27.9254 15.3217 29.2283C16.7282 30.5312 18.6359 31.2632 20.625 31.2632ZM5.625 6.07895H16.875C17.1236 6.079 17.362 6.17052 17.5378 6.33338C17.7135 6.49623 17.8123 6.71708 17.8123 6.94737C17.8123 7.17765 17.7135 7.39851 17.5378 7.56136C17.362 7.72421 17.1236 7.81573 16.875 7.81579H5.625C5.50187 7.81582 5.37993 7.79338 5.26616 7.74975C5.1524 7.70612 5.04902 7.64215 4.96194 7.56151C4.87486 7.48087 4.80579 7.38512 4.75866 7.27975C4.71153 7.17437 4.68727 7.06143 4.68727 6.94737C4.68727 6.83331 4.71153 6.72036 4.75866 6.61499C4.80579 6.50961 4.87486 6.41387 4.96194 6.33323C5.04902 6.25258 5.1524 6.18862 5.26616 6.14499C5.37993 6.10136 5.50187 6.07892 5.625 6.07895ZM5.625 11.2895H16.875C17.1236 11.2895 17.362 11.381 17.5378 11.5439C17.7135 11.7068 17.8123 11.9276 17.8123 12.1579C17.8123 12.3882 17.7135 12.609 17.5378 12.7719C17.362 12.9347 17.1236 13.0263 16.875 13.0263H5.625C5.3764 13.0263 5.138 12.9347 4.96223 12.7719C4.78647 12.609 4.68773 12.3882 4.68773 12.1579C4.68773 11.9276 4.78647 11.7068 4.96223 11.5439C5.138 11.381 5.3764 11.2895 5.625 11.2895ZM5.625 16.5H10.3125C10.5611 16.5001 10.7995 16.5916 10.9753 16.7544C11.151 16.9173 11.2498 17.1381 11.2498 17.3684C11.2498 17.5987 11.151 17.8196 10.9753 17.9824C10.7995 18.1453 10.5611 18.2368 10.3125 18.2368H5.625C5.3764 18.2368 5.138 18.1453 4.96223 17.9824C4.78647 17.8196 4.68773 17.5987 4.68773 17.3684C4.68773 17.1381 4.78647 16.9173 4.96223 16.7544C5.138 16.5916 5.3764 16.5001 5.625 16.5Z" fill="black"/>
</svg>
