<svg width="20" height="20" viewBox="0 0 20 20" fill="none" xmlns="http://www.w3.org/2000/svg">
<mask id="mask0_11_62" style="mask-type:luminance" maskUnits="userSpaceOnUse" x="0" y="0" width="20" height="20">
<path d="M20 0H0V20H20V0Z" fill="white"/>
</mask>
<g mask="url(#mask0_11_62)">
<path d="M20 7.11446V1.05729L17.5734 3.48586C16.0855 1.75153 14.0488 0.579686 11.8025 0.165523C9.55629 -0.248639 7.236 0.119878 5.22825 1.2097C3.22049 2.29951 1.64639 4.04484 0.768165 6.15497C-0.110068 8.26514 -0.239429 10.6127 0.401628 12.8067C1.04269 15.0007 2.41546 16.9086 4.29131 18.2128C6.16714 19.517 8.43286 20.1386 10.711 19.9741C12.9891 19.8097 15.1422 18.8691 16.8117 17.309C18.481 15.7489 19.566 13.6635 19.8858 11.4002H17.8731C17.5571 13.2069 16.6335 14.8513 15.2555 16.0607C13.8775 17.27 12.1279 17.9717 10.2967 18.0492C8.4656 18.1267 6.66297 17.5756 5.1878 16.4871C3.71262 15.3986 2.65352 13.8382 2.18613 12.0646C1.71874 10.291 1.87114 8.4108 2.61806 6.73583C3.36498 5.06079 4.66154 3.69161 6.29274 2.85531C7.92394 2.019 9.79177 1.76581 11.5865 2.13774C13.3812 2.50966 14.995 3.48434 16.1602 4.90015L13.9477 7.11446H20Z" fill="black"/>
</g>
</svg>
