<svg width="35" height="35" viewBox="0 0 35 35" fill="none" xmlns="http://www.w3.org/2000/svg">
<path d="M29.218 24.7603C29.4161 24.4323 29.7304 24.1965 30.0944 24.1029C30.4584 24.0093 30.8435 24.0652 31.1682 24.2588C31.4928 24.4524 31.7316 24.7685 31.8338 25.1402C31.936 25.5118 31.8938 25.9098 31.7159 26.2499C29.4712 30.2492 25.781 33.1721 21.4507 34.3807C17.1203 35.5893 12.5014 34.9855 8.60194 32.701C8.53398 32.6675 8.46832 32.6293 8.4054 32.5866C4.54723 30.2608 1.73487 26.4633 0.577889 22.0173C-0.579087 17.5713 0.0125561 12.8349 2.22458 8.83495C2.26163 8.75489 2.30547 8.67835 2.3556 8.60623C4.63012 4.63175 8.33808 1.74361 12.6717 0.570992C17.0054 -0.601628 21.6136 0.0362812 25.4924 2.34575C28.0546 3.85867 30.1859 6.03771 31.6732 8.66487L31.9581 7.52421C32.0033 7.31636 32.0888 7.12001 32.2092 6.94682C32.3297 6.77363 32.4827 6.62713 32.6593 6.51603C32.8358 6.40494 33.0322 6.33151 33.2369 6.30012C33.4415 6.26873 33.6502 6.28 33.8505 6.33328C34.0509 6.38656 34.2388 6.48076 34.403 6.61027C34.5673 6.73978 34.7046 6.90197 34.8068 7.08719C34.909 7.27242 34.974 7.4769 34.9979 7.68848C35.0218 7.90007 35.0041 8.11444 34.9459 8.31886L33.8949 12.5179C33.8635 12.6433 33.8176 12.7644 33.7582 12.8786C33.6236 13.2163 33.3803 13.4961 33.0692 13.6712C32.7581 13.8463 32.398 13.906 32.0492 13.8404L27.9135 13.0545C27.7141 13.016 27.524 12.9375 27.3542 12.8234C27.1843 12.7092 27.0379 12.5618 26.9234 12.3894C26.8089 12.2171 26.7284 12.0232 26.6867 11.8188C26.645 11.6145 26.6427 11.4036 26.6801 11.1984C26.7175 10.9931 26.7939 10.7975 26.9047 10.6226C27.0156 10.4477 27.1588 10.297 27.3262 10.1791C27.4936 10.0612 27.682 9.97842 27.8805 9.93545C28.079 9.89249 28.2838 9.89019 28.4831 9.9287L29.1468 10.0548C27.8889 7.88725 26.1042 6.09449 23.9685 4.85316C21.8328 3.61183 19.4198 2.96477 16.9673 2.97572C14.5147 2.98667 12.1073 3.65526 9.9821 4.91561C7.85694 6.17597 6.08741 7.98459 4.84787 10.1633L4.80799 10.2395C2.93698 13.5716 2.4266 17.5319 3.38888 21.251C4.35117 24.9701 6.70748 28.1442 9.94064 30.0766C13.1815 32.0015 17.0324 32.5226 20.6463 31.5251C24.2603 30.5276 27.3415 28.0932 29.2123 24.7574L29.218 24.7603ZM22.9517 20.6375L24.5895 22.3236L25.5921 23.3557L23.9686 25.0418L22.9659 24.0096L21.3794 25.6429L19.7417 23.9568L21.3282 22.3236L20.4737 21.4439L18.6479 23.3264L17.0101 21.6403L18.8388 19.7578L18.2691 19.1713L17.6994 18.5849C16.7946 19.5124 15.5697 20.0332 14.2929 20.0332C13.016 20.0332 11.7911 19.5124 10.8863 18.5849L10.8065 18.4969C9.93903 17.5596 9.4618 16.3103 9.4767 15.0157C9.4916 13.7211 9.99746 12.4838 10.8863 11.5679L12.5326 9.86419C13.4365 8.93095 14.6634 8.40558 15.9435 8.40366C17.2236 8.40173 18.4521 8.92341 19.3586 9.85392C20.2651 10.7844 20.7754 12.0476 20.7773 13.3654C20.7791 14.6833 20.2724 15.948 19.3685 16.8812L22.9659 20.6375H22.9517ZM17.463 11.7966C17.0542 11.3817 16.5033 11.149 15.9292 11.149C15.3552 11.149 14.8042 11.3817 14.3954 11.7966L12.7405 13.4885C12.3469 13.8999 12.1217 14.4512 12.1117 15.0286C12.1016 15.606 12.3073 16.1652 12.6864 16.5909L12.7434 16.6466C13.1525 17.0608 13.7034 17.293 14.2772 17.293C14.851 17.293 15.4019 17.0608 15.811 16.6466L17.463 14.9547C17.8654 14.5335 18.0908 13.9664 18.0908 13.3756C18.0908 12.7849 17.8654 12.2178 17.463 11.7966Z" fill="black"/>
</svg>
