<svg width="33" height="35" viewBox="0 0 33 35" fill="none" xmlns="http://www.w3.org/2000/svg">
<path d="M30.8713 23.6336C30.8135 23.5138 30.6973 23.4385 30.5704 23.4385H29.0296V0.35869C29.0296 0.160549 28.8782 0 28.6914 0H6.37464C4.0125 0 2.09082 2.03822 2.09082 4.54352V31.7848C2.09082 33.5576 3.45063 34.9999 5.12218 34.9999H28.6913C28.6925 34.9999 28.6936 34.9996 28.6948 34.9996C28.7139 34.9994 28.733 34.9971 28.7518 34.9935C28.7554 34.9928 28.759 34.9924 28.7626 34.9916C28.7799 34.9877 28.7968 34.9818 28.8133 34.975C28.8184 34.9729 28.8235 34.9709 28.8284 34.9686C28.8436 34.9615 28.8582 34.9529 28.8724 34.9433C28.8776 34.9398 28.8827 34.9361 28.8877 34.9323C28.9009 34.9223 28.9137 34.9114 28.9256 34.8991C28.9304 34.8943 28.9345 34.8891 28.939 34.884C28.9429 34.8795 28.9471 34.8753 28.9508 34.8705C28.9532 34.8674 28.9547 34.8639 28.957 34.8608C28.9665 34.8479 28.975 34.8345 28.9828 34.8204C28.9864 34.8136 28.99 34.8069 28.9931 34.8001C28.9996 34.7863 29.005 34.7722 29.0098 34.7575C29.0123 34.7496 29.0146 34.7418 29.0167 34.7338C29.0203 34.7198 29.0228 34.7054 29.0248 34.6907C29.026 34.6817 29.0268 34.6727 29.0274 34.6636C29.0278 34.656 29.0295 34.6488 29.0295 34.6412V28.9283V26.6856L30.8449 24.0065C30.919 23.8973 30.9292 23.7533 30.8713 23.6336ZM2.76721 4.54352C2.76721 2.76973 3.91131 1.27442 5.45774 0.842992V24.6967C5.45774 24.8949 5.60911 25.0554 5.79593 25.0554C5.98275 25.0554 6.13412 24.8949 6.13412 24.6967V0.726849C6.21373 0.721253 6.29375 0.717379 6.37464 0.717379H28.3531V23.4386H26.4354V13.2148C26.4354 13.0166 26.2841 12.8561 26.0973 12.8561H20.3462C20.1594 12.8561 20.008 13.0166 20.008 13.2148V23.4386H15.8731C15.7462 23.4386 15.63 23.5139 15.5722 23.6336C15.5144 23.7534 15.5245 23.8974 15.5985 24.0066L18.6908 28.5696H6.13412V27.4603C6.13412 27.2622 5.98275 27.1017 5.79593 27.1017C5.60911 27.1017 5.45774 27.2622 5.45774 27.4603V28.5696H5.12218C4.17226 28.5696 3.3234 29.0358 2.76721 29.7633V4.54352ZM2.76721 31.7848C2.76721 30.4075 3.82365 29.287 5.12218 29.287H19.1769L20.0857 30.6281H5.12597C4.93915 30.6281 4.78777 30.7887 4.78777 30.9868C4.78777 31.185 4.93915 31.3455 5.12597 31.3455H20.5719L21.2808 32.3915H5.12597C4.93915 32.3915 4.78777 32.5521 4.78777 32.7502C4.78777 32.9484 4.93915 33.1089 5.12597 33.1089H21.7669L22.5623 34.2825H5.12218C3.82365 34.2826 2.76721 33.1621 2.76721 31.7848ZM24.6767 33.1089H25.7398C25.9266 33.1089 26.078 32.9484 26.078 32.7502C26.078 32.5521 25.9266 32.3915 25.7398 32.3915H25.1629L27.2667 29.287H27.9935C27.6003 29.878 27.0926 30.8265 27.0926 31.7848C27.0926 32.8833 27.538 33.7433 27.9236 34.2825H23.8814L24.6767 33.1089ZM27.7689 31.7848C27.7689 31.1584 28.0608 30.5062 28.3532 30.0099V33.6825C28.0636 33.2313 27.7689 32.5778 27.7689 31.7848ZM28.3532 28.5696H27.7528L28.3532 27.6837V28.5696ZM23.2218 34.0267L16.5327 24.1559H20.3462C20.533 24.1559 20.6844 23.9953 20.6844 23.7972V13.5735H25.7591V23.7973C25.7591 23.9954 25.9104 24.1559 26.0973 24.1559H29.9108L23.2218 34.0267Z" fill="black"/>
</svg>
