<svg width="35" height="35" viewBox="0 0 35 35" fill="none" xmlns="http://www.w3.org/2000/svg">
<g clip-path="url(#clip0_9_47)">
<path fill-rule="evenodd" clip-rule="evenodd" d="M8.3552 0.530232C8.92692 1.23721 8.92692 2.38347 8.3552 3.09045L4.9984 7.24137H23.0059C24.7709 7.24135 26.1945 7.24133 27.3428 7.37003C28.5265 7.50269 29.5607 7.78342 30.5 8.45409C31.6128 9.24854 32.5369 10.3912 33.1793 11.7672C33.7216 12.9289 33.9486 14.2077 34.056 15.6713C34.16 17.0913 34.16 18.8517 34.16 21.0345V21.2071C34.16 23.3897 34.16 25.15 34.056 26.5701C33.9488 28.0335 33.7218 29.3124 33.1793 30.4741C32.5369 31.8502 31.6128 32.9929 30.5 33.7873C29.5607 34.4579 28.5265 34.7386 27.3428 34.8713C26.1945 35 24.7709 35 23.0059 35H9.27202C8.46346 35 7.80802 34.1894 7.80802 33.1897C7.80802 32.1899 8.46346 31.3793 9.27202 31.3793H22.936C24.7873 31.3793 26.0779 31.3776 27.0785 31.2654C28.059 31.1556 28.6165 30.9511 29.036 30.6518C29.7038 30.1751 30.2581 29.4893 30.6437 28.6638C30.8857 28.1451 31.051 27.4557 31.1399 26.2432C31.2306 25.0059 31.232 23.4099 31.232 21.1207C31.232 18.8314 31.2306 17.2354 31.1399 15.9981C31.051 14.7856 30.8857 14.0963 30.6437 13.5776C30.2581 12.7519 29.7036 12.0664 29.036 11.5897C28.6165 11.2902 28.059 11.0858 27.0785 10.9759C26.0779 10.8638 24.7873 10.8621 22.936 10.8621H4.9984L8.3552 15.013C8.92692 15.72 8.92692 16.8661 8.3552 17.5731C7.78348 18.2801 6.85651 18.2801 6.28479 17.5731L0.428791 10.3318C-0.14293 9.62485 -0.14293 8.47859 0.428791 7.77161L6.28479 0.530232C6.85651 -0.176744 7.78348 -0.176744 8.3552 0.530232Z" fill="black"/>
</g>
<defs>
<clipPath id="clip0_9_47">
<rect width="35" height="35" fill="white"/>
</clipPath>
</defs>
</svg>
