<svg width="32" height="32" viewBox="0 0 32 32" fill="none" xmlns="http://www.w3.org/2000/svg">
<g clip-path="url(#clip0_11_55)">
<path fill-rule="evenodd" clip-rule="evenodd" d="M17.8079 0.663377C19.0634 -0.00428339 20.55 -0.176282 21.9405 0.185202C22.5571 0.345485 23.0839 0.624707 23.5804 0.940079C24.0521 1.2396 24.593 1.63614 25.2201 2.09574L25.3115 2.16279C25.9386 2.62239 26.4797 3.01894 26.9037 3.37586C27.35 3.75164 27.7664 4.16375 28.0817 4.68645C28.7928 5.86532 28.9759 7.26116 28.5909 8.56685C28.4203 9.14578 28.1229 9.64049 27.787 10.1068C27.4681 10.5497 27.0457 11.0577 26.5561 11.6465L13.6758 27.1406C13.6432 27.1798 13.6111 27.2184 13.5794 27.2567C12.9748 27.9847 12.5176 28.535 11.9516 28.9871C11.4726 29.3697 10.9426 29.6922 10.3751 29.9464C9.70451 30.2468 8.98273 30.4139 8.02798 30.6349C7.97793 30.6465 7.92722 30.6582 7.87587 30.6701L4.02265 31.5632C3.75581 31.6252 3.45121 31.6961 3.18251 31.7347C2.88297 31.778 2.41913 31.8171 1.90683 31.6632C1.29099 31.4779 0.765534 31.0928 0.424718 30.5768C0.141207 30.1475 0.0690684 29.7156 0.0410147 29.4322C0.0158442 29.178 0.014956 28.8834 0.0141762 28.6253C0.0141218 28.6093 0.0140853 28.5934 0.0140309 28.5778L0.0015726 24.8986C0.00139126 24.8488 0.00121004 24.7998 0.0010287 24.7514C-0.00250749 23.8282 -0.00517324 23.13 0.142386 22.4464C0.267295 21.8676 0.471813 21.3065 0.750809 20.7775C1.08042 20.1522 1.53807 19.6022 2.14343 18.8746C2.17517 18.8365 2.20732 18.7978 2.23989 18.7587L15.1202 3.26446C15.6097 2.67566 16.032 2.1676 16.4121 1.7695C16.8123 1.35036 17.2512 0.959406 17.8079 0.663377ZM20.9727 3.4673C20.5092 3.34681 20.0138 3.40414 19.5952 3.62669C19.5241 3.6645 19.3892 3.75316 19.1127 4.04289C18.8251 4.34404 18.4787 4.75909 17.9436 5.40286L23.6615 9.59387C24.1968 8.9501 24.5414 8.5339 24.7827 8.19888C25.015 7.87655 25.0738 7.7321 25.0955 7.65818C25.2239 7.22295 25.1628 6.75768 24.9258 6.36471C24.8856 6.29798 24.7911 6.17128 24.4826 5.91152C24.1618 5.64151 23.7199 5.31636 23.0342 4.81384C22.3486 4.31131 21.9054 3.98761 21.5487 3.76103C21.2054 3.54302 21.0514 3.48776 20.9727 3.4673ZM21.4299 12.2784L15.712 8.0874L5.09887 20.8541C4.3558 21.7479 4.14626 22.0132 4.0012 22.2884C3.86171 22.553 3.75943 22.8334 3.697 23.1227C3.63206 23.4236 3.62457 23.7538 3.62841 24.8877L3.63944 28.1444L7.00658 27.3638C8.17898 27.0921 8.51824 27.0051 8.81332 26.8728C9.09712 26.7457 9.3621 26.5845 9.60162 26.3931C9.85064 26.1942 10.0738 25.939 10.8168 25.0452L21.4299 12.2784ZM15.6791 30.2972C15.6791 29.3568 16.491 28.5944 17.4926 28.5944H30.1866C31.1881 28.5944 32 29.3568 32 30.2972C32 31.2377 31.1881 32 30.1866 32H17.4926C16.491 32 15.6791 31.2377 15.6791 30.2972Z" fill="black"/>
</g>
<defs>
<clipPath id="clip0_11_55">
<rect width="32" height="32" fill="white"/>
</clipPath>
</defs>
</svg>
