<svg width="30" height="29" viewBox="0 0 30 29" fill="none" xmlns="http://www.w3.org/2000/svg">
<path d="M28.6638 26.8771H6.5399L9.81887 25.5443C9.95118 25.4931 10.0912 25.4013 10.1851 25.3102L29.6785 6.46672C30.1072 6.05245 30.1072 5.3807 29.6785 4.96632L24.8623 0.310701C24.4338 -0.103567 23.7388 -0.103567 23.3102 0.310701C22.9553 0.653716 4.39196 18.5983 3.8168 19.1542C3.71743 19.2501 3.62438 19.3875 3.57469 19.508L0.0894625 27.5202C-0.219972 28.2168 0.311358 28.999 1.09833 28.999H28.6638C29.27 28.999 29.7613 28.524 29.7613 27.9381C29.7613 27.3522 29.2699 26.8771 28.6638 26.8771ZM24.0863 2.5612L27.3504 5.71646L24.9605 8.02666L21.6964 4.87139L24.0863 2.5612ZM20.1443 6.37179L23.4084 9.52706L9.40913 23.0596L6.14503 19.9043L20.1443 6.37179ZM4.97157 21.7708L7.47822 24.1939L3.15281 25.952L4.97157 21.7708Z" fill="black"/>
</svg>
