<svg width="30" height="31" viewBox="0 0 30 31" fill="none" xmlns="http://www.w3.org/2000/svg">
<rect width="30" height="31" fill="#1E1E1E"/>
<path d="M4.68747 1.85999C4.40153 1.91569 4.19528 2.17725 4.19997 2.47999V19.22H1.79997C1.78122 19.22 1.76247 19.22 1.74372 19.22C1.43434 19.249 1.19762 19.5179 1.19997 19.84V22.32C1.19997 22.6615 1.4695 22.94 1.79997 22.94H3.59997V27.59C3.59997 28.4376 4.27966 29.14 5.09997 29.14C5.92028 29.14 6.59997 28.4376 6.59997 27.59V22.94H23.4V27.59C23.4 28.4376 24.0797 29.14 24.9 29.14C25.7203 29.14 26.4 28.4376 26.4 27.59V22.94H28.2C28.5304 22.94 28.8 22.6615 28.8 22.32V19.84C28.8 19.4985 28.5304 19.22 28.2 19.22H26.325C26.3414 19.1376 26.3414 19.0505 26.325 18.9681L23.2875 5.69624C23.2218 5.37655 22.9265 5.16342 22.6125 5.21186C22.6007 5.2167 22.5867 5.22397 22.575 5.23124L19.65 5.94811C19.4273 6.00139 19.2515 6.18303 19.2 6.41311V6.19999C19.2 5.8585 18.9304 5.57999 18.6 5.57999H15V2.47999C15 2.1385 14.7304 1.85999 14.4 1.85999H9.63747C9.62575 1.85999 9.61169 1.85999 9.59997 1.85999H4.79997C4.78122 1.85999 4.76247 1.85999 4.74372 1.85999C4.72497 1.85999 4.70622 1.85999 4.68747 1.85999ZM5.39997 3.09999H8.99997V19.22H5.39997V3.09999ZM10.2 3.09999H13.8V6.14186C13.8 6.16124 13.8 6.18061 13.8 6.19999V19.22H10.2V3.09999ZM6.43122 4.33999C6.10075 4.38842 5.86872 4.70569 5.91559 5.04717C5.96247 5.38866 6.2695 5.62842 6.59997 5.57999H7.79997C8.01559 5.58241 8.21716 5.46616 8.32731 5.27241C8.43512 5.07866 8.43512 4.84131 8.32731 4.64756C8.21716 4.45381 8.01559 4.33756 7.79997 4.33999H6.59997C6.58122 4.33999 6.56247 4.33999 6.54372 4.33999C6.52497 4.33999 6.50622 4.33999 6.48747 4.33999C6.46872 4.33999 6.44997 4.33999 6.43122 4.33999ZM11.2312 4.33999C10.9007 4.38842 10.6687 4.70569 10.7156 5.04717C10.7625 5.38866 11.0695 5.62842 11.4 5.57999H12.6C12.8156 5.58241 13.0172 5.46616 13.1273 5.27241C13.2351 5.07866 13.2351 4.84131 13.1273 4.64756C13.0172 4.45381 12.8156 4.33756 12.6 4.33999H11.4C11.3812 4.33999 11.3625 4.33999 11.3437 4.33999C11.325 4.33999 11.3062 4.33999 11.2875 4.33999C11.2687 4.33999 11.25 4.33999 11.2312 4.33999ZM22.2562 6.56811L22.6312 8.23436C22.5047 7.99944 22.2492 7.87592 21.9937 7.92436C21.975 7.9292 21.9562 7.93647 21.9375 7.94374L21.3562 8.07936C21.1125 8.12295 20.9203 8.31428 20.8687 8.56374L20.5125 6.99436L22.2562 6.56811ZM19.2 6.68436L22.0687 19.22H19.2V6.68436ZM15 6.81999H18V19.22H15V6.81999ZM16.0312 8.05999C15.7007 8.10842 15.4687 8.42569 15.5156 8.76717C15.5625 9.10866 15.8695 9.34842 16.2 9.29999H16.8C17.0156 9.30241 17.2172 9.18616 17.3273 8.99241C17.4351 8.79866 17.4351 8.56131 17.3273 8.36756C17.2172 8.17381 17.0156 8.05756 16.8 8.05999H16.2C16.1812 8.05999 16.1625 8.05999 16.1437 8.05999C16.125 8.05999 16.1062 8.05999 16.0875 8.05999C16.0687 8.05999 16.05 8.05999 16.0312 8.05999ZM22.7062 8.58311L24.525 16.5462C24.3914 16.3961 24.1945 16.3258 24 16.3525C23.9672 16.3573 23.9367 16.3622 23.9062 16.3719C23.8945 16.3767 23.8804 16.384 23.8687 16.3912L23.2875 16.5269C23.0437 16.5705 22.8515 16.7618 22.8 17.0112L21 9.10624C21.1593 9.2903 21.4101 9.35811 21.6375 9.28061L22.2187 9.14499C22.4859 9.0917 22.6851 8.86163 22.7062 8.58311ZM6.43122 16.74C6.10075 16.7884 5.86872 17.1057 5.91559 17.4472C5.96247 17.7887 6.2695 18.0284 6.59997 17.98H7.79997C8.01559 17.9824 8.21716 17.8662 8.32731 17.6724C8.43512 17.4787 8.43512 17.2413 8.32731 17.0476C8.21716 16.8538 8.01559 16.7376 7.79997 16.74H6.59997C6.58122 16.74 6.56247 16.74 6.54372 16.74C6.52497 16.74 6.50622 16.74 6.48747 16.74C6.46872 16.74 6.44997 16.74 6.43122 16.74ZM11.2312 16.74C10.9007 16.7884 10.6687 17.1057 10.7156 17.4472C10.7625 17.7887 11.0695 18.0284 11.4 17.98H12.6C12.8156 17.9824 13.0172 17.8662 13.1273 17.6724C13.2351 17.4787 13.2351 17.2413 13.1273 17.0476C13.0172 16.8538 12.8156 16.7376 12.6 16.74H11.4C11.3812 16.74 11.3625 16.74 11.3437 16.74C11.325 16.74 11.3062 16.74 11.2875 16.74C11.2687 16.74 11.25 16.74 11.2312 16.74ZM16.0312 16.74C15.7007 16.7884 15.4687 17.1057 15.5156 17.4472C15.5625 17.7887 15.8695 18.0284 16.2 17.98H16.8C17.0156 17.9824 17.2172 17.8662 17.3273 17.6724C17.4351 17.4787 17.4351 17.2413 17.3273 17.0476C17.2172 16.8538 17.0156 16.7376 16.8 16.74H16.2C16.1812 16.74 16.1625 16.74 16.1437 16.74C16.125 16.74 16.1062 16.74 16.0875 16.74C16.0687 16.74 16.05 16.74 16.0312 16.74ZM24.6562 17.1275L25.0125 18.6387L23.2687 19.065L22.9312 17.5537C23.0906 17.7378 23.3414 17.8056 23.5687 17.7281L24.15 17.5925C24.3937 17.5586 24.5953 17.3745 24.6562 17.1275ZM2.39997 20.46H27.6V21.7H2.39997V20.46ZM4.79997 22.94H5.39997V27.59C5.39997 27.7668 5.27106 27.9 5.09997 27.9C4.92887 27.9 4.79997 27.7668 4.79997 27.59V22.94ZM24.6 22.94H25.2V27.59C25.2 27.7668 25.0711 27.9 24.9 27.9C24.7289 27.9 24.6 27.7668 24.6 27.59V22.94Z" fill="black"/>
</svg>
