<svg width="29" height="29" viewBox="0 0 29 29" fill="none" xmlns="http://www.w3.org/2000/svg">
<path d="M3.66442 0C3.36398 0.0612573 3.14727 0.348899 3.15219 0.681818V19.0909H0.630453C0.610751 19.0909 0.59105 19.0909 0.571349 19.0909C0.246282 19.1229 -0.00244435 19.4185 1.8126e-05 19.7727V22.5C1.8126e-05 22.8755 0.283221 23.1818 0.630453 23.1818H2.52176V28.2955C2.52176 29.2276 3.23592 30 4.09784 30C4.95976 30 5.67393 29.2276 5.67393 28.2955V23.1818H23.3261V28.2955C23.3261 29.2276 24.0403 30 24.9022 30C25.7641 30 26.4783 29.2276 26.4783 28.2955V23.1818H28.3696C28.7168 23.1818 29 22.8755 29 22.5V19.7727C29 19.3972 28.7168 19.0909 28.3696 19.0909H26.3995C26.4167 19.0004 26.4167 18.9045 26.3995 18.8139L23.2079 4.21875C23.1389 3.86719 22.8286 3.63281 22.4986 3.68608C22.4863 3.69141 22.4716 3.6994 22.4592 3.70739L19.3859 4.49574C19.1519 4.55433 18.9672 4.75408 18.913 5.0071V4.77273C18.913 4.39719 18.6298 4.09091 18.2826 4.09091H14.5V0.681818C14.5 0.306286 14.2168 0 13.8696 0H8.8655C8.85319 0 8.83841 0 8.8261 0H3.78262C3.76292 0 3.74322 0 3.72352 0C3.70382 0 3.68412 0 3.66442 0ZM4.41306 1.36364H8.19567V19.0909H4.41306V1.36364ZM9.45653 1.36364H13.2391V4.70881C13.2391 4.73011 13.2391 4.75142 13.2391 4.77273V19.0909H9.45653V1.36364ZM5.49662 2.72727C5.14939 2.78054 4.90559 3.12944 4.95484 3.50497C5.00409 3.8805 5.3267 4.14418 5.67393 4.09091H6.9348C7.16136 4.09357 7.37315 3.96573 7.48889 3.75266C7.60217 3.5396 7.60217 3.27859 7.48889 3.06552C7.37315 2.85245 7.16136 2.72461 6.9348 2.72727H5.67393C5.65423 2.72727 5.63453 2.72727 5.61482 2.72727C5.59512 2.72727 5.57542 2.72727 5.55572 2.72727C5.53602 2.72727 5.51632 2.72727 5.49662 2.72727ZM10.5401 2.72727C10.1929 2.78054 9.94906 3.12944 9.99831 3.50497C10.0476 3.8805 10.3702 4.14418 10.7174 4.09091H11.9783C12.2048 4.09357 12.4166 3.96573 12.5324 3.75266C12.6456 3.5396 12.6456 3.27859 12.5324 3.06552C12.4166 2.85245 12.2048 2.72461 11.9783 2.72727H10.7174C10.6977 2.72727 10.678 2.72727 10.6583 2.72727C10.6386 2.72727 10.6189 2.72727 10.5992 2.72727C10.5795 2.72727 10.5598 2.72727 10.5401 2.72727ZM22.1243 5.17756L22.5183 7.00994C22.3854 6.7516 22.1169 6.61577 21.8485 6.66903C21.8288 6.67436 21.8091 6.68235 21.7894 6.69034L21.1787 6.83949C20.9226 6.88743 20.7206 7.09783 20.6664 7.37216L20.2921 5.64631L22.1243 5.17756ZM18.913 5.3054L21.9273 19.0909H18.913V5.3054ZM14.5 5.45455H17.6522V19.0909H14.5V5.45455ZM15.5836 6.81818C15.2363 6.87145 14.9925 7.22035 15.0418 7.59588C15.091 7.97141 15.4136 8.23509 15.7609 8.18182H16.3913C16.6179 8.18448 16.8297 8.05664 16.9454 7.84357C17.0587 7.6305 17.0587 7.3695 16.9454 7.15643C16.8297 6.94336 16.6179 6.81552 16.3913 6.81818H15.7609C15.7412 6.81818 15.7215 6.81818 15.7018 6.81818C15.6821 6.81818 15.6624 6.81818 15.6427 6.81818C15.623 6.81818 15.6033 6.81818 15.5836 6.81818ZM22.5972 7.39347L24.5082 16.1506C24.3678 15.9854 24.1609 15.9082 23.9565 15.9375C23.922 15.9428 23.89 15.9482 23.858 15.9588C23.8457 15.9641 23.8309 15.9721 23.8186 15.9801L23.2079 16.1293C22.9518 16.1772 22.7498 16.3876 22.6957 16.6619L20.8044 7.96875C20.9718 8.17116 21.2353 8.24574 21.4742 8.16051L22.0849 8.01136C22.3657 7.95277 22.575 7.69975 22.5972 7.39347ZM5.49662 16.3636C5.14939 16.4169 4.90559 16.7658 4.95484 17.1413C5.00409 17.5169 5.3267 17.7805 5.67393 17.7273H6.9348C7.16136 17.7299 7.37315 17.6021 7.48889 17.389C7.60217 17.176 7.60217 16.915 7.48889 16.7019C7.37315 16.4888 7.16136 16.361 6.9348 16.3636H5.67393C5.65423 16.3636 5.63453 16.3636 5.61482 16.3636C5.59512 16.3636 5.57542 16.3636 5.55572 16.3636C5.53602 16.3636 5.51632 16.3636 5.49662 16.3636ZM10.5401 16.3636C10.1929 16.4169 9.94906 16.7658 9.99831 17.1413C10.0476 17.5169 10.3702 17.7805 10.7174 17.7273H11.9783C12.2048 17.7299 12.4166 17.6021 12.5324 17.389C12.6456 17.176 12.6456 16.915 12.5324 16.7019C12.4166 16.4888 12.2048 16.361 11.9783 16.3636H10.7174C10.6977 16.3636 10.678 16.3636 10.6583 16.3636C10.6386 16.3636 10.6189 16.3636 10.5992 16.3636C10.5795 16.3636 10.5598 16.3636 10.5401 16.3636ZM15.5836 16.3636C15.2363 16.4169 14.9925 16.7658 15.0418 17.1413C15.091 17.5169 15.4136 17.7805 15.7609 17.7273H16.3913C16.6179 17.7299 16.8297 17.6021 16.9454 17.389C17.0587 17.176 17.0587 16.915 16.9454 16.7019C16.8297 16.4888 16.6179 16.361 16.3913 16.3636H15.7609C15.7412 16.3636 15.7215 16.3636 15.7018 16.3636C15.6821 16.3636 15.6624 16.3636 15.6427 16.3636C15.623 16.3636 15.6033 16.3636 15.5836 16.3636ZM24.6461 16.7898L25.0204 18.4517L23.1882 18.9205L22.8336 17.2585C23.001 17.4609 23.2645 17.5355 23.5034 17.4503L24.1141 17.3011C24.3702 17.2638 24.582 17.0614 24.6461 16.7898ZM1.26089 20.4545H27.7391V21.8182H1.26089V20.4545ZM3.78262 23.1818H4.41306V28.2955C4.41306 28.4899 4.27761 28.6364 4.09784 28.6364C3.91807 28.6364 3.78262 28.4899 3.78262 28.2955V23.1818ZM24.587 23.1818H25.2174V28.2955C25.2174 28.4899 25.0819 28.6364 24.9022 28.6364C24.7224 28.6364 24.587 28.4899 24.587 28.2955V23.1818Z" fill="black"/>
</svg>
