<svg width="22" height="27" viewBox="0 0 22 27" fill="none" xmlns="http://www.w3.org/2000/svg">
<path fill-rule="evenodd" clip-rule="evenodd" d="M8.36914 6.54865e-07H13.5064C15.2159 -2.43451e-05 16.5937 -4.92856e-05 17.6774 0.145651C18.8025 0.296926 19.7499 0.620538 20.5022 1.37294C21.2547 2.12534 21.5782 3.07268 21.7296 4.19781C21.8752 5.28153 21.8752 6.65943 21.8752 8.36891V18.5061C21.8752 20.2156 21.8752 21.5935 21.7296 22.6772C21.5782 23.8024 21.2547 24.7496 20.5022 25.5021C19.7499 26.2545 18.8025 26.5781 17.6774 26.7294C16.5937 26.875 15.2157 26.875 13.5064 26.875H8.36915C6.65966 26.875 5.28175 26.875 4.19805 26.7294C3.07291 26.5781 2.12556 26.2545 1.37317 25.5021C0.620773 24.7496 0.297161 23.8024 0.145886 22.6772C0.0975109 22.3174 0.0651984 21.9252 0.0436234 21.4992C-0.00522661 21.345 -0.0147391 21.1765 0.0236859 21.0085C0.000198442 20.2686 0.000210984 19.4364 0.000235984 18.5061V8.36891C0.000210984 6.65943 0.000185901 5.28153 0.145886 4.19781C0.297161 3.07268 0.620773 2.12534 1.37317 1.37294C2.12556 0.620538 3.07291 0.296926 4.19804 0.145651C5.28175 -4.92856e-05 6.65965 -2.43451e-05 8.36914 6.54865e-07ZM1.90867 21.2489C1.92767 21.6911 1.95746 22.08 2.00416 22.4274C2.12749 23.3446 2.35304 23.8302 2.699 24.1762C3.04495 24.5222 3.53066 24.7478 4.44789 24.8711C5.39207 24.998 6.64346 25 8.43775 25H13.4377C15.232 25 16.4834 24.998 17.4276 24.8711C18.3447 24.7478 18.8305 24.5222 19.1765 24.1762C19.4219 23.9309 19.6066 23.6151 19.7374 23.125H5.93774C5.41996 23.125 5.00024 22.7053 5.00024 22.1875C5.00024 21.6697 5.41996 21.25 5.93774 21.25H19.9667C19.9899 20.7113 19.9971 20.0933 19.9992 19.375H5.80995C4.58714 19.375 4.15962 19.383 3.83202 19.4709C2.93287 19.7118 2.21607 20.3801 1.90867 21.2489ZM20.0002 17.5H5.80995C5.76099 17.5 5.71275 17.5 5.66521 17.5C4.64275 17.4996 3.94506 17.4994 3.34674 17.6598C2.81176 17.8031 2.31552 18.0373 1.87524 18.3449V8.4375C1.87524 6.64323 1.87722 5.39184 2.00416 4.44765C2.12749 3.53044 2.35304 3.04471 2.699 2.69876C3.04495 2.35281 3.53066 2.12725 4.44789 2.00394C5.39207 1.87699 6.64346 1.875 8.43775 1.875H13.4377C15.232 1.875 16.4834 1.87699 17.4276 2.00394C18.3447 2.12725 18.8305 2.35281 19.1765 2.69876C19.5224 3.04471 19.748 3.53044 19.8712 4.44765C19.9982 5.39184 20.0002 6.64323 20.0002 8.4375V17.5ZM5.00024 7.1875C5.00024 6.66974 5.41996 6.25 5.93774 6.25H15.9377C16.4555 6.25 16.8752 6.66974 16.8752 7.1875C16.8752 7.70526 16.4555 8.125 15.9377 8.125H5.93774C5.41996 8.125 5.00024 7.70526 5.00024 7.1875ZM5.00024 11.5625C5.00024 11.0448 5.41996 10.625 5.93774 10.625H12.1877C12.7055 10.625 13.1252 11.0448 13.1252 11.5625C13.1252 12.0803 12.7055 12.5 12.1877 12.5H5.93774C5.41996 12.5 5.00024 12.0803 5.00024 11.5625Z" fill="black"/>
</svg>
