<svg width="30" height="31" viewBox="0 0 30 31" fill="none" xmlns="http://www.w3.org/2000/svg">
<path d="M15 6.45817C15 6.1156 15.1317 5.78706 15.3661 5.54482C15.6005 5.30259 15.9185 5.1665 16.25 5.1665H26.25C26.5815 5.1665 26.8995 5.30259 27.1339 5.54482C27.3683 5.78706 27.5 6.1156 27.5 6.45817C27.5 6.80074 27.3683 7.12928 27.1339 7.37152C26.8995 7.61375 26.5815 7.74984 26.25 7.74984H16.25C15.9185 7.74984 15.6005 7.61375 15.3661 7.37152C15.1317 7.12928 15 6.80074 15 6.45817Z" fill="black"/>
<path d="M15 15.4999C15 15.1573 15.1317 14.8288 15.3661 14.5866C15.6005 14.3443 15.9185 14.2083 16.25 14.2083H26.25C26.5815 14.2083 26.8995 14.3443 27.1339 14.5866C27.3683 14.8288 27.5 15.1573 27.5 15.4999C27.5 15.8425 27.3683 16.171 27.1339 16.4133C26.8995 16.6555 26.5815 16.7916 26.25 16.7916H16.25C15.9185 16.7916 15.6005 16.6555 15.3661 16.4133C15.1317 16.171 15 15.8425 15 15.4999Z" fill="black"/>
<path d="M15 24.5417C15 24.1991 15.1317 23.8706 15.3661 23.6283C15.6005 23.3861 15.9185 23.25 16.25 23.25H26.25C26.5815 23.25 26.8995 23.3861 27.1339 23.6283C27.3683 23.8706 27.5 24.1991 27.5 24.5417C27.5 24.8842 27.3683 25.2128 27.1339 25.455C26.8995 25.6972 26.5815 25.8333 26.25 25.8333H16.25C15.9185 25.8333 15.6005 25.6972 15.3661 25.455C15.1317 25.2128 15 24.8842 15 24.5417Z" fill="black"/>
<path d="M7.49991 1.29162C7.28518 1.30115 7.07599 1.36502 6.89073 1.47763C6.70546 1.59024 6.5498 1.74814 6.43741 1.93746L2.62491 8.39579C2.53081 8.5972 2.48193 8.81797 2.48193 9.04162C2.48193 9.26528 2.53081 9.48605 2.62491 9.68746C2.72785 9.88528 2.88136 10.0501 3.06872 10.164C3.25607 10.2779 3.47007 10.3364 3.68741 10.3333H11.2499C11.4647 10.3238 11.6738 10.2599 11.8591 10.1473C12.0444 10.0347 12.2 9.87677 12.3124 9.68746C12.436 9.49629 12.502 9.27154 12.502 9.04162C12.502 8.81171 12.436 8.58696 12.3124 8.39579L8.56241 1.93746C8.45947 1.73963 8.30596 1.5748 8.11861 1.46092C7.93126 1.34704 7.71725 1.28848 7.49991 1.29162Z" fill="black"/>
<path d="M7.5 19.375C6.75832 19.375 6.0333 19.1477 5.41661 18.7219C4.79993 18.2962 4.31928 17.691 4.03545 16.9829C3.75162 16.2748 3.67736 15.4957 3.82206 14.744C3.96675 13.9924 4.3239 13.3019 4.84835 12.76C5.3728 12.218 6.04098 11.849 6.76841 11.6995C7.49584 11.5499 8.24984 11.6267 8.93506 11.92C9.62029 12.2133 10.206 12.7099 10.618 13.3472C11.0301 13.9844 11.25 14.7336 11.25 15.5C11.25 16.5277 10.8549 17.5133 10.1517 18.24C9.44839 18.9667 8.49456 19.375 7.5 19.375Z" fill="black"/>
<path d="M10 28.4165H5C4.66848 28.4165 4.35054 28.2804 4.11612 28.0382C3.8817 27.7959 3.75 27.4674 3.75 27.1248V21.9582C3.75 21.6156 3.8817 21.2871 4.11612 21.0448C4.35054 20.8026 4.66848 20.6665 5 20.6665H10C10.3315 20.6665 10.6495 20.8026 10.8839 21.0448C11.1183 21.2871 11.25 21.6156 11.25 21.9582V27.1248C11.25 27.4674 11.1183 27.7959 10.8839 28.0382C10.6495 28.2804 10.3315 28.4165 10 28.4165Z" fill="black"/>
</svg>
