<svg width="29" height="29" viewBox="0 0 29 29" fill="none" xmlns="http://www.w3.org/2000/svg">
<g clip-path="url(#clip0_3_99)">
<path d="M3.30886 15.3963H19.0106C19.5117 15.3963 19.9168 14.9903 19.9168 14.49C19.9168 13.9898 19.5117 13.5838 19.0106 13.5838H3.36505L6.64296 10.3059C6.9973 9.95244 6.9973 9.37788 6.64296 9.02444C6.28861 8.671 5.71496 8.671 5.36152 9.02444L0.00830078 14.5181L5.36152 20.0127C5.53914 20.1894 5.77024 20.2782 6.00224 20.2782C6.23424 20.2782 6.46533 20.1894 6.64296 20.0127C6.9973 19.6593 6.9973 19.0856 6.64296 18.7313L3.30886 15.3963ZM27.1777 0H11.7714C10.77 0 9.95893 0.811094 9.95893 1.8125V9.96875H11.7832V2.91813C11.7832 2.31275 12.2744 1.82156 12.8798 1.82156H26.0412C26.6475 1.82156 27.1378 2.31275 27.1378 2.91813L27.1668 26.0927C27.1668 26.6981 26.6765 27.1893 26.0702 27.1893H12.8816C12.2762 27.1893 11.785 26.6981 11.785 26.0927V19.0023L9.96074 19.005V27.1884C9.96074 28.1898 10.7718 29.0009 11.7732 29.0009H27.1786C28.18 29.0009 28.992 28.1898 28.992 27.1884V1.81341C28.992 0.812 28.18 0.00090625 27.1795 0.00090625L27.1777 0Z" fill="black"/>
</g>
<defs>
<clipPath id="clip0_3_99">
<rect width="29" height="29" fill="white"/>
</clipPath>
</defs>
</svg>
