<svg width="30" height="25" viewBox="0 0 30 25" fill="none" xmlns="http://www.w3.org/2000/svg">
<path d="M19.6394 16.1764H17.1799C16.7374 16.1764 16.3774 16.5244 16.3774 16.9522V19.9651C16.3774 20.3928 16.7374 20.7408 17.1799 20.7408H19.6394C20.0819 20.7408 20.4419 20.3928 20.4419 19.9651V16.9522C20.4419 16.5243 20.0819 16.1764 19.6394 16.1764ZM19.5116 19.8415H17.3077V17.0757H19.5116V19.8415Z" fill="black"/>
<path d="M19.1266 17.4456H17.6926V18.3448H19.1266V17.4456Z" fill="black"/>
<path d="M18.4216 4.28715C18.6776 4.28715 18.8852 4.08651 18.8852 3.83901C18.8852 3.59151 18.6776 3.39087 18.4216 3.39087C18.1656 3.39087 17.958 3.59151 17.958 3.83901C17.958 4.08651 18.1656 4.28715 18.4216 4.28715Z" fill="black"/>
<path d="M19.1266 12.579H17.6926V13.4783H19.1266V12.579Z" fill="black"/>
<path d="M29.2843 22.25H28.2159V9.62692C28.808 9.61962 29.2874 9.15239 29.2874 8.57839V7.16861C29.2874 6.59014 28.8005 6.11945 28.2021 6.11945H24.8438L19.365 0.823385C18.7891 0.266664 17.8519 0.266834 17.2759 0.823385L15.8004 2.24965V1.42791C15.8004 0.640549 15.1378 0 14.3233 0H10.7593C9.94482 0 9.28219 0.640605 9.28219 1.42791V2.781C9.11291 2.71552 8.92852 2.67916 8.73527 2.67916H5.17137C4.35686 2.67916 3.69422 3.31971 3.69422 4.10707V6.11951H1.79783C1.19941 6.11951 0.7125 6.59019 0.7125 7.16866V8.57845C0.7125 9.15245 1.19197 9.61973 1.784 9.62698V22.2501H0.715664C0.321094 22.25 0 22.5604 0 22.9419V23.8086C0 24.1901 0.321094 24.5005 0.715664 24.5005H29.2844C29.679 24.5005 30.0001 24.1901 30.0001 23.8086V22.9419C30 22.5604 29.6789 22.25 29.2843 22.25ZM15.9599 3.36734L17.9338 1.45935C18.1471 1.25329 18.494 1.25323 18.7072 1.45935L23.5281 6.11951H21.4387L19.9997 4.72853L19.3419 5.36438L20.123 6.1194H18.0337L15.9599 4.11477C15.8574 4.01571 15.8009 3.88294 15.8009 3.741C15.801 3.59917 15.8575 3.46641 15.9599 3.36734ZM15.8005 5.23257L16.718 6.11945H15.8005V5.23257ZM10.2125 1.42791H10.2125C10.2125 1.13644 10.4578 0.899283 10.7594 0.899283H14.3234C14.6249 0.899283 14.8702 1.13644 14.8702 1.42791V6.11951H13.0065V3.05157H12.0762V6.11951H10.2125V1.42791ZM4.62439 4.10701H4.62445C4.62445 3.81554 4.86973 3.57838 5.17131 3.57838H8.73527C9.0368 3.57838 9.28213 3.81548 9.28213 4.10701V6.11945H4.62439V4.10701ZM1.64279 8.57839V7.16861C1.64279 7.08738 1.71375 7.01874 1.79783 7.01874H28.2021C28.2861 7.01874 28.3571 7.08738 28.3571 7.16861V8.57839C28.3571 8.65962 28.2861 8.72826 28.2021 8.72826H1.79783C1.71381 8.72826 1.64279 8.65962 1.64279 8.57839ZM13.4205 12.6537C13.3331 12.5676 13.2135 12.5191 13.0886 12.5191H4.70279C4.44926 12.5191 4.24242 12.7154 4.23768 12.9604L4.05955 22.2501H2.71436V9.62766H27.2857V22.2501H13.3758L13.5537 12.9772C13.556 12.8564 13.508 12.7398 13.4205 12.6537ZM12.6147 13.4184L12.4454 22.2501H4.99008L5.15941 13.4184H12.6147ZM29.0697 23.6012H0.930293V23.1493H29.0697V23.6012Z" fill="black"/>
<path d="M6.64523 20.4783C6.90127 20.4783 7.10883 20.2777 7.10883 20.0302C7.10883 19.7827 6.90127 19.582 6.64523 19.582C6.3892 19.582 6.18164 19.7827 6.18164 20.0302C6.18164 20.2777 6.3892 20.4783 6.64523 20.4783Z" fill="black"/>
<path d="M10.1831 15.6956H7.60815V16.5948H10.1831V15.6956Z" fill="black"/>
<path d="M6.18148 18.7187H11.6099C11.8668 18.7187 12.0751 18.5174 12.0751 18.2691V14.5011C12.0751 14.2527 11.8669 14.0514 11.6099 14.0514H6.18148C5.92455 14.0514 5.71631 14.2527 5.71631 14.5011V18.2691C5.71637 18.5174 5.92455 18.7187 6.18148 18.7187ZM6.64666 14.9507H11.1448V17.8194H6.64666V14.9507Z" fill="black"/>
<path d="M15.5423 21.9101H25.9638C26.2207 21.9101 26.429 21.7088 26.429 21.4604V10.5901C26.429 10.3417 26.2208 10.1404 25.9638 10.1404H15.5423C15.2854 10.1404 15.0771 10.3417 15.0771 10.5901V21.4604C15.0771 21.7088 15.2854 21.9101 15.5423 21.9101ZM16.0074 11.0397H25.4986V21.0108H16.0074V11.0397Z" fill="black"/>
<path d="M23.8134 17.4456H22.3794V18.3448H23.8134V17.4456Z" fill="black"/>
<path d="M19.6394 11.3099H17.1799C16.7374 11.3099 16.3774 11.6579 16.3774 12.0857V15.0986C16.3774 15.5263 16.7374 15.8743 17.1799 15.8743H19.6394C20.0819 15.8743 20.4419 15.5263 20.4419 15.0986V12.0857C20.4419 11.658 20.0819 11.3099 19.6394 11.3099ZM19.5116 14.975H17.3077V12.2092H19.5116V14.975Z" fill="black"/>
<path d="M24.3259 16.1764H21.8664C21.4239 16.1764 21.064 16.5244 21.064 16.9522V19.9651C21.064 20.3928 21.4239 20.7408 21.8664 20.7408H24.3259C24.7684 20.7408 25.1284 20.3928 25.1284 19.9651V16.9522C25.1284 16.5243 24.7684 16.1764 24.3259 16.1764ZM24.1981 19.8415H21.9943V17.0757H24.1981V19.8415Z" fill="black"/>
<path d="M24.3259 11.3099H21.8664C21.4239 11.3099 21.064 11.6579 21.064 12.0857V15.0986C21.064 15.5263 21.4239 15.8743 21.8664 15.8743H24.3259C24.7684 15.8743 25.1284 15.5263 25.1284 15.0986V12.0857C25.1284 11.658 24.7684 11.3099 24.3259 11.3099ZM24.1981 14.975H21.9943V12.2092H24.1981V14.975Z" fill="black"/>
<path d="M23.8134 12.579H22.3794V13.4783H23.8134V12.579Z" fill="black"/>
</svg>
