<svg width="22" height="24" viewBox="0 0 22 24" fill="none" xmlns="http://www.w3.org/2000/svg">
<path d="M21.3999 17.3398C21.3999 16.2331 20.496 15.3087 19.3018 15.1026V13.5942C19.3018 13.457 19.229 13.3276 19.1048 13.2442C18.9805 13.1607 18.8191 13.1328 18.668 13.1684L18.1077 13.3007C16.605 11.1005 14.2238 10.4722 13.052 10.2944V9.14891C13.4066 8.88168 13.7349 8.55154 14.0281 8.16237C14.1472 8.00433 14.2576 7.83829 14.3611 7.66649C14.3625 7.66696 14.3637 7.66749 14.3652 7.66784C14.4965 7.70518 14.6302 7.72288 14.7629 7.72288C15.373 7.72288 16.0078 7.35899 16.1727 6.76698C16.557 5.38616 15.2674 5.09729 15.2453 5.09377C15.2915 4.75522 15.3163 4.40944 15.3163 4.05884C15.3162 0.420742 12.6815 0 10.6997 0C8.71813 0 6.08369 0.420742 6.08369 4.05896C6.08369 4.40956 6.1085 4.75534 6.1547 5.09388C6.13264 5.09741 4.82947 5.39868 5.22725 6.76727C5.39884 7.35775 6.02703 7.72299 6.63711 7.72299C6.76968 7.72299 6.90345 7.70524 7.03482 7.66796C7.03623 7.66755 7.0375 7.66702 7.03891 7.66661C7.14238 7.83841 7.25275 8.00445 7.37184 8.16249C7.66508 8.55166 7.99325 8.8818 8.34785 9.14902V10.2945C7.17597 10.4723 4.795 11.1008 3.2922 13.3008L2.73201 13.1685C2.58087 13.133 2.41946 13.1609 2.29527 13.2443C2.17102 13.3278 2.09826 13.4572 2.09826 13.5943V15.1027C0.903853 15.3087 0 16.2331 0 17.3399C0 18.4466 0.903853 19.3712 2.09826 19.5773V21.4704C2.09826 21.666 2.24518 21.8383 2.45923 21.8935L10.5529 23.9821C10.5995 23.9941 10.6473 24 10.6949 24C10.6966 24 10.6984 24 10.7001 24C10.7482 24.0001 10.7988 23.9945 10.847 23.9821L18.9408 21.8943C19.1548 21.8391 19.3018 21.6669 19.3018 21.4713V19.5772C20.4961 19.3711 21.3999 18.4464 21.3999 17.3398ZM15.0698 5.97594C15.2265 6.06531 15.2934 6.28485 15.2158 6.49534C15.1418 6.69536 14.9562 6.83436 14.7775 6.84041C14.893 6.56272 14.9908 6.27391 15.0698 5.97594ZM6.18407 6.4954C6.10642 6.28497 6.17334 6.06542 6.33006 5.976C6.40918 6.27391 6.50695 6.56272 6.62229 6.84041C6.44378 6.83418 6.25804 6.69536 6.18407 6.4954ZM10.6997 0.881936C12.8452 0.881936 14.2805 1.4128 14.309 3.9817C12.5327 4.30361 10.8908 4.01775 9.42384 3.12928C8.60246 2.63175 8.04804 2.06361 7.77961 1.75411C8.4076 1.06855 9.42886 0.881936 10.6997 0.881936ZM8.21105 7.67631C7.48785 6.71641 7.08954 5.43178 7.08954 4.05902C7.08954 3.486 7.15793 3.01216 7.28682 2.62117C7.63356 2.97277 8.14366 3.42103 8.81684 3.83342C9.75302 4.40703 11.1462 4.98917 12.9442 4.98917C13.3612 4.98917 13.8002 4.95736 14.2601 4.88733C14.133 5.94301 13.7642 6.91267 13.1888 7.67637C12.508 8.57988 11.624 9.07747 10.6996 9.07747C9.77561 9.07741 8.89174 8.57982 8.21105 7.67631ZM8.90033 11.1174C9.15762 11.095 9.35363 10.9053 9.35363 10.6785V9.70988C9.78319 9.87398 10.2354 9.95929 10.6997 9.95929C11.1642 9.95929 11.6164 9.87398 12.0461 9.70982V10.6785C12.0461 10.9052 12.2422 11.095 12.4994 11.1174C12.7293 11.1374 13.131 11.1881 13.6198 11.3142C13.3718 11.9842 12.1359 12.5114 10.7 12.5114C9.26404 12.5114 8.02799 11.9842 7.78008 11.3142C8.26886 11.1881 8.67046 11.1374 8.90033 11.1174ZM1.00578 17.3398C1.00578 16.7225 1.46418 16.1973 2.09819 16.0122V18.6672C1.46418 18.4821 1.00578 17.957 1.00578 17.3398ZM10.1919 22.9695L3.10404 21.1405V14.1696L10.1919 15.8434V22.9695ZM10.6999 15.0501L4.30824 13.5407C5.04519 12.5629 5.98599 11.9767 6.84009 11.6262C7.25651 12.6518 8.80263 13.3934 10.7001 13.3934C12.5975 13.3934 14.1431 12.6518 14.5593 11.626C15.4134 11.9764 16.3546 12.5626 17.0916 13.5407L10.6999 15.0501ZM18.2959 21.1413L11.208 22.9695V15.8434L18.2959 14.1696V21.1413ZM19.3018 18.6672V16.0122C19.9357 16.1973 20.3941 16.7225 20.3941 17.3398C20.3941 17.957 19.9357 18.4821 19.3018 18.6672Z" fill="black"/>
</svg>
