<svg width="30" height="31" viewBox="0 0 30 31" fill="none" xmlns="http://www.w3.org/2000/svg">
<path d="M13.0716 15.0572C9.42871 15.0572 6.42871 11.7357 6.42871 7.97146C6.42871 4.20717 9.42871 0.885742 13.2859 0.885742C17.143 0.885742 20.143 3.98574 20.143 7.97146C20.143 11.9572 16.9287 15.0572 13.0716 15.0572ZM13.0716 2.65717C10.2859 2.65717 7.92871 5.09289 7.92871 7.97146C7.92871 10.85 10.2859 13.2857 13.0716 13.2857C15.8573 13.2857 18.2144 10.85 18.2144 7.97146C18.2144 5.09289 16.0716 2.65717 13.0716 2.65717Z" fill="black"/>
<path d="M23.9999 28.1216H1.07129V27.2359C1.07129 19.7073 6.42843 13.5073 12.857 13.5073C19.2856 13.5073 24.6427 19.7073 24.6427 27.2359V28.1216H23.9999ZM2.78557 26.5716H23.1427C22.9284 20.1502 18.4284 15.2788 12.857 15.2788C7.49986 15.2788 2.99986 20.1502 2.78557 26.5716Z" fill="black"/>
<path d="M19.7141 14.8358C19.2856 14.8358 19.0713 14.3929 19.0713 13.9501C19.0713 13.5072 19.2856 13.0644 19.7141 13.0644C21.857 13.0644 23.5713 11.2929 23.5713 8.85721C23.5713 7.08578 22.4999 5.53578 20.7856 4.87149C20.5713 5.09292 20.357 4.42864 20.5713 3.98578C20.5713 3.54292 20.9999 3.32149 21.4284 3.54292C23.7856 4.20721 25.2856 6.42149 25.2856 9.07864C25.2856 12.1786 22.9284 14.8358 19.7141 14.8358Z" fill="black"/>
<path d="M28.4998 25.2428H26.5712C26.1426 25.2428 25.7141 24.7999 25.7141 24.3571C25.7141 23.9142 26.1426 23.4714 26.5712 23.4714H27.6426C27.2141 18.5999 23.7855 14.8356 19.7141 14.8356C19.2855 14.8356 18.8569 14.3928 18.8569 13.9499C18.8569 13.5071 19.0712 13.2856 19.4998 13.2856C24.8569 13.2856 29.1426 18.3785 29.1426 24.5785V25.4642L28.4998 25.2428Z" fill="black"/>
</svg>
